
<svg width="260" height="260" viewBox="0 0 260 260" fill="none" xmlns="http://www.w3.org/2000/svg">
<rect width="260" height="260" fill="#2E2E2E"/>
<g filter="url(#filter0_d_106_6)">
<path d="M87.6503 88.9C87.6503 97.1 86.5503 104.4 84.3503 110.8C82.1503 117.16 78.8503 122.16 74.4503 125.8C70.0903 129.4 64.6303 131.2 58.0703 131.2C51.5503 131.2 46.0903 129.44 41.6903 125.92C37.2903 122.36 33.9903 117.42 31.7903 111.1C29.5903 104.78 28.4903 97.44 28.4903 89.08C28.4903 80.84 29.5903 73.52 31.7903 67.12C33.9903 60.68 37.2903 55.62 41.6903 51.94C46.0903 48.26 51.5503 46.42 58.0703 46.42C64.6303 46.42 70.0903 48.22 74.4503 51.82C78.8503 55.38 82.1503 60.36 84.3503 66.76C86.5503 73.12 87.6503 80.5 87.6503 88.9ZM79.4903 88.9C79.4903 77.66 77.8303 68.96 74.5103 62.8C71.1903 56.6 65.7103 53.5 58.0703 53.5C50.4303 53.5 44.9503 56.62 41.6303 62.86C38.3103 69.1 36.6503 77.84 36.6503 89.08C36.6503 100.28 38.3703 108.92 41.8103 115C45.2503 121.08 50.6703 124.12 58.0703 124.12C65.6703 124.12 71.1303 121.08 74.4503 115C77.8103 108.88 79.4903 100.18 79.4903 88.9ZM107.163 130V67H113.403L114.003 76.18C116.483 72.9 119.743 70.36 123.783 68.56C127.863 66.76 131.663 65.86 135.183 65.86C141.623 65.86 146.203 67.5 148.923 70.78C151.683 74.06 153.063 78.6 153.063 84.4V130H145.623V92.38C145.623 87.58 145.363 83.68 144.843 80.68C144.323 77.68 143.203 75.5 141.483 74.14C139.763 72.74 137.063 72.04 133.383 72.04C130.583 72.04 127.943 72.66 125.463 73.9C123.023 75.1 120.863 76.6 118.983 78.4C117.143 80.16 115.683 81.88 114.603 83.56V130H107.163ZM209.117 47.56V127.6H201.497V56.14L181.997 67.9L178.697 62.44L202.637 47.56H209.117ZM226.877 123.58V130H181.097V123.58H226.877ZM119.247 221C117.167 222.36 114.647 223.4 111.687 224.12C108.727 224.84 105.987 225.2 103.467 225.2C97.1469 225.2 92.1869 223.52 88.5869 220.16C85.0269 216.8 83.2469 212.58 83.2469 207.5V167.24H68.3669V161H83.2469V146.48L90.6869 145.58V161H112.887L111.867 167.24H90.6869V207.32C90.6869 210.96 91.6669 213.78 93.6269 215.78C95.6269 217.74 98.9669 218.72 103.647 218.72C106.047 218.72 108.267 218.44 110.307 217.88C112.347 217.32 114.247 216.58 116.007 215.66L119.247 221ZM193.42 161L170.92 224.54C169.56 228.42 167.88 232.1 165.88 235.58C163.88 239.06 161.22 242 157.9 244.4C154.58 246.84 150.26 248.38 144.94 249.02L143.62 242.54C148.02 241.74 151.46 240.54 153.94 238.94C156.46 237.34 158.42 235.3 159.82 232.82C161.26 230.34 162.54 227.4 163.66 224H161.2L138.58 161H146.62L166.48 217.64L185.68 161H193.42Z" fill="white"/>
</g>
<defs>
<filter id="filter0_d_106_6" x="24.4903" y="46.42" width="206.386" height="210.6" filterUnits="userSpaceOnUse" color-interpolation-filters="sRGB">
<feFlood flood-opacity="0" result="BackgroundImageFix"/>
<feColorMatrix in="SourceAlpha" type="matrix" values="0 0 0 0 0 0 0 0 0 0 0 0 0 0 0 0 0 0 127 0" result="hardAlpha"/>
<feOffset dy="4"/>
<feGaussianBlur stdDeviation="2"/>
<feComposite in2="hardAlpha" operator="out"/>
<feColorMatrix type="matrix" values="0 0 0 0 0 0 0 0 0 0 0 0 0 0 0 0 0 0 0.25 0"/>
<feBlend mode="normal" in2="BackgroundImageFix" result="effect1_dropShadow_106_6"/>
<feBlend mode="normal" in="SourceGraphic" in2="effect1_dropShadow_106_6" result="shape"/>
</filter>
</defs>
</svg>
